<svg width="220" height="32" viewBox="0 0 220 32" fill="none" xmlns="http://www.w3.org/2000/svg">
<path d="M12.72 32C8.88 32 5.88 30.96 3.72 28.88C1.58667 26.8 0.52 23.8933 0.52 20.16C0.52 16.72 1.29333 13.6133 2.84 10.84C4.41333 8.06667 6.56 5.89333 9.28 4.32C12.0267 2.74667 15.0667 1.96 18.4 1.96C20.6933 1.96 22.5067 2.36 23.84 3.16C25.1733 3.96 25.84 5.04 25.84 6.4C25.84 7.52 25.4267 8.45333 24.6 9.2C23.8 9.94667 22.7733 10.32 21.52 10.32C20.2933 10.32 19.16 10.0133 18.12 9.4C17.08 8.76 16.2533 7.8 15.64 6.52C14.1467 7.10667 12.8 8.09333 11.6 9.48C10.4267 10.84 9.50667 12.4667 8.84 14.36C8.17333 16.2533 7.84 18.2667 7.84 20.4C7.84 22.88 8.29333 24.8267 9.2 26.24C10.1067 27.6267 11.36 28.32 12.96 28.32C14.2133 28.32 15.3333 27.9867 16.32 27.32C17.3333 26.6533 18.1467 25.7467 18.76 24.6C19.3733 23.4533 19.72 22.1867 19.8 20.8C21.2667 20.8 22.3867 21.08 23.16 21.64C23.9333 22.1733 24.32 23.0133 24.32 24.16C24.32 25.6 23.8 26.92 22.76 28.12C21.72 29.32 20.3067 30.2667 18.52 30.96C16.7333 31.6533 14.8 32 12.72 32ZM36.1772 32C34.7105 32 33.4172 31.6133 32.2972 30.84C31.1772 30.0667 30.3105 28.9733 29.6972 27.56C29.0839 26.12 28.7772 24.4667 28.7772 22.6C28.7772 19.6133 29.4439 16.9333 30.7772 14.56C32.1372 12.1867 34.0039 10.3333 36.3772 9C38.7772 7.66667 41.4839 7 44.4972 7C45.6705 7 46.8039 7.10667 47.8972 7.32C48.2172 7.98667 48.3772 8.90667 48.3772 10.08C45.9239 10.08 43.7105 10.6 41.7372 11.64C39.7905 12.6533 38.2705 14.04 37.1772 15.8C36.0839 17.5333 35.5372 19.4667 35.5372 21.6C35.5372 23.0933 35.8439 24.2533 36.4572 25.08C37.0972 25.9067 37.9772 26.32 39.0972 26.32C41.2572 26.32 43.0039 25 44.3372 22.36C45.6972 19.6933 46.6839 15.6 47.2972 10.08C47.8572 9.38667 48.4839 8.86667 49.1772 8.52C49.8972 8.17333 50.6705 8 51.4972 8C52.3239 8 52.9639 8.22667 53.4172 8.68C53.8972 9.13333 54.1372 9.78667 54.1372 10.64C54.1372 11.2 54.0439 11.96 53.8572 12.92C53.6705 13.8533 53.4172 14.9867 53.0972 16.32C52.5372 18.6933 52.1105 20.72 51.8172 22.4C51.5239 24.08 51.3772 25.72 51.3772 27.32C51.3772 28.76 51.7239 29.7733 52.4172 30.36C51.1105 31.4533 49.7105 32 48.2172 32C47.0439 32 46.1372 31.6533 45.4972 30.96C44.8572 30.2667 44.5372 29.28 44.5372 28C44.5372 27.4933 44.6039 26.88 44.7372 26.16L44.3372 25.96C43.4839 27.88 42.3372 29.3733 40.8972 30.44C39.4839 31.48 37.9105 32 36.1772 32ZM63.38 32C62.0467 32 61.06 31.64 60.42 30.92C59.78 30.2 59.46 29.12 59.46 27.68C59.46 26.6667 59.7533 24.5333 60.34 21.28C60.9533 18 61.6333 14.8667 62.38 11.88L60.38 9.16C61.2867 8.49333 62.1533 7.97333 62.98 7.6C63.8333 7.22667 64.66 7.04 65.46 7.04C66.42 7.04 67.1267 7.29333 67.58 7.8C68.06 8.28 68.3 8.93333 68.3 9.76C68.3 10.5867 68.18 11.44 67.94 12.32C67.7 13.1733 67.3533 14.2 66.9 15.4L67.3 15.6C68.0467 13.6267 68.78 12.04 69.5 10.84C70.22 9.61333 71.02 8.66667 71.9 8C72.8067 7.33333 73.82 7 74.94 7C76.0333 7 76.8867 7.29333 77.5 7.88C78.1133 8.46667 78.42 9.28 78.42 10.32C78.42 11.52 78.0067 12.5067 77.18 13.28C76.38 14.0267 75.26 14.4 73.82 14.4C72.5133 14.4 71.2733 15 70.1 16.2C68.9533 17.4 68.0333 18.9867 67.34 20.96C66.6733 22.9333 66.34 25.0533 66.34 27.32C66.34 28.7333 66.58 29.7467 67.06 30.36C65.8867 31.4533 64.66 32 63.38 32ZM86.2163 32C84.7496 32 83.4563 31.6133 82.3363 30.84C81.2163 30.0667 80.3496 28.9733 79.7363 27.56C79.1229 26.12 78.8163 24.4667 78.8163 22.6C78.8163 19.6133 79.4829 16.9333 80.8163 14.56C82.1763 12.1867 84.0429 10.3333 86.4163 9C88.8163 7.66667 91.5229 7 94.5363 7C95.7096 7 96.8429 7.10667 97.9363 7.32C98.2563 7.98667 98.4163 8.90667 98.4163 10.08C95.9629 10.08 93.7496 10.6 91.7763 11.64C89.8296 12.6533 88.3096 14.04 87.2162 15.8C86.1229 17.5333 85.5763 19.4667 85.5763 21.6C85.5763 23.0933 85.8829 24.2533 86.4963 25.08C87.1363 25.9067 88.0163 26.32 89.1363 26.32C91.2963 26.32 93.0429 25 94.3763 22.36C95.7363 19.6933 96.7229 15.6 97.3363 10.08C97.8963 9.38667 98.5229 8.86667 99.2163 8.52C99.9363 8.17333 100.71 8 101.536 8C102.363 8 103.003 8.22667 103.456 8.68C103.936 9.13333 104.176 9.78667 104.176 10.64C104.176 11.2 104.083 11.96 103.896 12.92C103.71 13.8533 103.456 14.9867 103.136 16.32C102.576 18.6933 102.15 20.72 101.856 22.4C101.563 24.08 101.416 25.72 101.416 27.32C101.416 28.76 101.763 29.7733 102.456 30.36C101.15 31.4533 99.7496 32 98.2563 32C97.0829 32 96.1763 31.6533 95.5363 30.96C94.8963 30.2667 94.5763 29.28 94.5763 28C94.5763 27.4933 94.6429 26.88 94.7763 26.16L94.3763 25.96C93.5229 27.88 92.3763 29.3733 90.9363 30.44C89.5229 31.48 87.9496 32 86.2163 32ZM113.419 32C112.059 32 111.059 31.6533 110.419 30.96C109.806 30.2667 109.499 29.24 109.499 27.88C109.499 26.7067 109.806 24.44 110.419 21.08C111.059 17.72 111.712 14.6533 112.379 11.88L110.419 9.16C111.432 8.52 112.486 8.01333 113.579 7.64C114.672 7.24 115.726 7.04 116.739 7.04C117.726 7.04 118.446 7.26667 118.899 7.72C119.352 8.17333 119.579 8.85333 119.579 9.76C119.579 10.4267 119.472 11.16 119.259 11.96C119.072 12.76 118.832 13.48 118.539 14.12L118.939 14.32C120.406 11.7333 121.966 9.86667 123.619 8.72C125.299 7.57333 127.152 7 129.179 7C130.726 7 131.912 7.4 132.739 8.2C133.566 9 133.979 10.16 133.979 11.68C133.979 12.4267 133.859 13.24 133.619 14.12L134.019 14.32C135.512 11.7333 137.099 9.86667 138.779 8.72C140.459 7.57333 142.326 7 144.379 7C146.032 7 147.272 7.41333 148.099 8.24C148.926 9.04 149.339 10.3067 149.339 12.04C149.339 13 149.232 14.0133 149.019 15.08C148.832 16.12 148.539 17.48 148.139 19.16C147.686 21.0267 147.339 22.56 147.099 23.76C146.886 24.96 146.779 26.1467 146.779 27.32C146.779 28.7333 147.019 29.7467 147.499 30.36C146.326 31.4533 145.112 32 143.859 32C142.472 32 141.459 31.6667 140.819 31C140.206 30.36 139.899 29.3867 139.899 28.08C139.899 26.9333 140.019 25.76 140.259 24.56C140.499 23.3333 140.846 21.8533 141.299 20.12C141.672 18.7067 141.939 17.5867 142.099 16.76C142.286 15.9333 142.379 15.1867 142.379 14.52C142.379 13.7467 142.232 13.16 141.939 12.76C141.672 12.36 141.219 12.16 140.579 12.16C139.379 12.16 138.059 12.8267 136.619 14.16C135.206 15.4933 134.006 17.32 133.019 19.64C132.059 21.96 131.579 24.52 131.579 27.32C131.579 28.7333 131.819 29.7467 132.299 30.36C131.126 31.4533 129.899 32 128.619 32C127.259 32 126.259 31.6667 125.619 31C125.006 30.36 124.699 29.3867 124.699 28.08C124.699 26.9333 124.819 25.76 125.059 24.56C125.326 23.3333 125.686 21.8533 126.139 20.12C126.486 18.7067 126.739 17.5867 126.899 16.76C127.086 15.9333 127.179 15.1867 127.179 14.52C127.179 12.9467 126.579 12.16 125.379 12.16C124.179 12.16 122.859 12.8267 121.419 14.16C120.006 15.4933 118.806 17.32 117.819 19.64C116.859 21.96 116.379 24.52 116.379 27.32C116.379 28.7333 116.619 29.7467 117.099 30.36C115.926 31.4533 114.699 32 113.419 32ZM163.818 32C160.698 32 158.258 31.1333 156.498 29.4C154.738 27.64 153.858 25.2 153.858 22.08C153.858 19.2267 154.511 16.6533 155.818 14.36C157.125 12.0667 158.938 10.2667 161.258 8.96C163.605 7.65333 166.218 7 169.098 7C171.418 7 173.218 7.50667 174.498 8.52C175.778 9.53333 176.418 10.9467 176.418 12.76C176.418 14.6533 175.751 16.28 174.418 17.64C173.111 19 171.205 20.0267 168.698 20.72C166.191 21.4133 163.191 21.7467 159.698 21.72L160.218 19.04C163.498 18.96 166.031 18.4133 167.818 17.4C169.605 16.36 170.498 14.9733 170.498 13.24C170.498 12.52 170.271 11.9467 169.818 11.52C169.365 11.0667 168.765 10.84 168.018 10.84C166.711 10.84 165.485 11.36 164.338 12.4C163.218 13.44 162.311 14.84 161.618 16.6C160.951 18.36 160.618 20.24 160.618 22.24C160.618 24.1867 160.965 25.7067 161.658 26.8C162.351 27.8933 163.311 28.44 164.538 28.44C166.031 28.44 167.258 27.92 168.218 26.88C169.178 25.84 169.698 24.48 169.778 22.8C171.165 22.8 172.218 23.0533 172.938 23.56C173.685 24.0667 174.058 24.8133 174.058 25.8C174.058 26.92 173.605 27.96 172.698 28.92C171.791 29.8533 170.551 30.6 168.978 31.16C167.431 31.72 165.711 32 163.818 32ZM184.828 32C183.521 32 182.575 31.6133 181.988 30.84C181.401 30.0667 181.108 28.8667 181.108 27.24C181.108 26.2 181.348 24.0933 181.828 20.92C182.308 17.7467 182.935 14.0133 183.708 9.72C183.841 8.89333 183.975 8.10667 184.108 7.36C184.241 6.58667 184.375 5.86667 184.508 5.2L182.468 2.44C183.428 1.69333 184.468 1.10667 185.588 0.679999C186.735 0.226665 187.815 -1.43051e-06 188.828 -1.43051e-06C189.868 -1.43051e-06 190.601 0.199998 191.028 0.599998C191.481 0.999998 191.708 1.66666 191.708 2.6C191.708 3.16 191.601 4 191.388 5.12C191.175 6.21333 190.881 7.6 190.508 9.28C189.735 12.88 189.108 16.08 188.628 18.88C188.175 21.68 187.948 24.3067 187.948 26.76C187.948 27.72 188.041 28.4533 188.228 28.96C188.415 29.4667 188.681 29.9333 189.028 30.36C188.415 30.8933 187.735 31.2933 186.988 31.56C186.268 31.8533 185.548 32 184.828 32ZM205.863 32C203.756 32 201.916 31.5733 200.343 30.72C198.769 29.84 197.556 28.6133 196.703 27.04C195.849 25.44 195.423 23.5867 195.423 21.48C195.423 18.68 196.049 16.1867 197.303 14C198.556 11.8133 200.303 10.1067 202.543 8.88C204.783 7.62667 207.316 7 210.143 7C211.129 7 212.116 7.10667 213.103 7.32C213.396 8.01333 213.529 8.93333 213.503 10.08C211.209 10.08 209.209 10.5867 207.503 11.6C205.796 12.6133 204.476 14 203.543 15.76C202.636 17.52 202.183 19.48 202.183 21.64C202.183 23.9067 202.583 25.6133 203.383 26.76C204.209 27.88 205.356 28.44 206.823 28.44C208.049 28.44 209.156 28.1067 210.143 27.44C211.129 26.7467 211.943 25.7733 212.583 24.52C213.223 23.24 213.636 21.7467 213.823 20.04C212.783 19.4267 212.009 18.7067 211.503 17.88C210.996 17.0267 210.743 16.0267 210.743 14.88C210.743 13.9733 210.929 13.1467 211.303 12.4C211.703 11.6267 212.236 11.0267 212.903 10.6C213.569 10.1733 214.303 9.96 215.102 9.96C216.543 9.96 217.689 10.5467 218.543 11.72C219.423 12.8933 219.863 14.4667 219.863 16.44C219.863 19.2933 219.236 21.9067 217.983 24.28C216.729 26.6533 215.036 28.5333 212.903 29.92C210.769 31.3067 208.423 32 205.863 32Z" fill="#A97E2A"/>
</svg>
